<svg id="Layer_1" data-name="Layer 1" xmlns="http://www.w3.org/2000/svg" xmlns:xlink="http://www.w3.org/1999/xlink" viewBox="0 0 2601.7 1240.15"><defs><style>.cls-1{fill:url(#linear-gradient);}.cls-2{fill:url(#linear-gradient-2);}.cls-3{fill:url(#linear-gradient-3);}.cls-4{fill:url(#linear-gradient-4);}.cls-5{fill:url(#linear-gradient-5);}.cls-6{fill:url(#linear-gradient-6);}.cls-7{fill:url(#linear-gradient-7);}.cls-8{fill:url(#linear-gradient-8);}</style><linearGradient id="linear-gradient" x1="110.35" y1="1165.87" x2="110.47" y2="1167.14" gradientTransform="matrix(1919.74, 0, 0, -1004, -211002.22, 1171814.05)" gradientUnits="userSpaceOnUse"><stop offset="0" stop-color="#e82569"/><stop offset="0.5" stop-color="#a85399"/><stop offset="1" stop-color="#25a3d9"/></linearGradient><linearGradient id="linear-gradient-2" x1="109.81" y1="1166.34" x2="110.3" y2="1167.18" gradientTransform="matrix(268.88, 0, 0, -268.88, -28483.22, 313941.66)" xlink:href="#linear-gradient"/><linearGradient id="linear-gradient-3" x1="108.17" y1="1167.71" x2="108.34" y2="1168.67" gradientTransform="matrix(49.34, 0, 0, -49.34, -3769.81, 57785.61)" xlink:href="#linear-gradient"/><linearGradient id="linear-gradient-4" x1="109.19" y1="1166.06" x2="109.83" y2="1167.88" gradientTransform="matrix(121.91, 0, 0, -121.91, -11566.62, 142505.81)" xlink:href="#linear-gradient"/><linearGradient id="linear-gradient-5" x1="108.8" y1="1167.22" x2="108.97" y2="1168.18" gradientTransform="matrix(68.55, 0, 0, -68.55, -6789.93, 80171.69)" xlink:href="#linear-gradient"/><linearGradient id="linear-gradient-6" x1="107.19" y1="1168.49" x2="107.36" y2="1169.45" gradientTransform="matrix(34.28, 0, 0, -34.28, -2993.37, 40266.76)" xlink:href="#linear-gradient"/><linearGradient id="linear-gradient-7" x1="-331.53" y1="1023.44" x2="459.38" y2="194.13" gradientUnits="userSpaceOnUse"><stop offset="0" stop-color="#e82569"/><stop offset="0.52" stop-color="#a85399"/><stop offset="0.67" stop-color="#8468aa"/><stop offset="0.98" stop-color="#29a0d6"/><stop offset="1" stop-color="#25a3d9"/></linearGradient><linearGradient id="linear-gradient-8" x1="1522.05" y1="983.97" x2="1806.18" y2="147.14" gradientTransform="matrix(1, 0, 0, 1, 0, 0)" xlink:href="#linear-gradient"/></defs><title>VD_Hero_Background</title><path id="Rectangle_2" data-name="Rectangle 2" class="cls-1" d="M58.74,59.05H1978.48V401.63c0,365.29-296.13,661.42-661.42,661.42H58.74V59.05Z" transform="translate(461.96 -59.05)"/><circle id="Ellipse_1" data-name="Ellipse 1" class="cls-2" cx="1118.02" cy="206.13" r="134.44"/><circle id="Ellipse_2" data-name="Ellipse 2" class="cls-3" cx="1571.82" cy="148.16" r="24.67"/><circle id="Ellipse_7" data-name="Ellipse 7" class="cls-4" cx="1794.87" cy="206.13" r="60.96"/><circle id="Ellipse_11" data-name="Ellipse 11" class="cls-5" cx="675.07" cy="118.78" r="34.28"/><circle id="Ellipse_12" data-name="Ellipse 12" class="cls-6" cx="684.13" cy="196.81" r="17.14"/><path class="cls-7" d="M-4.57,59.05-391.44,659.14a442.1,442.1,0,0,0,47.2,539.93l7,7.55c117,126.37,318,122.89,430.45-7.51,72.23-83.72,139.69-165.81,166.44-209.3C319.22,893.07,390.54,777.28,424.75,633c55.9-235.73-10.07-451.66-61-574Z" transform="translate(461.96 -59.05)"/><path class="cls-8" d="M2124.32,244.4C2097.2,150.8,2038.87,93.91,1978,59.05H1510.79c-91,50.21-170.09,136.26-202.09,272.21-47.37,201.23,37.59,388.09,42.54,398.62,111,236.13,360.7,270.67,530.93,148.74C2045.55,761.59,2187.71,463.18,2124.32,244.4Z" transform="translate(461.96 -59.05)"/></svg>